<svg xmlns="http://www.w3.org/2000/svg" viewBox="0 0 48 16"><defs><style>.cls-1{fill:none;}.cls-2{opacity:0.8;}.cls-3{fill:#0a8eef;}</style></defs><title>icn_字符型</title><g id="图层_2" data-name="图层 2"><g id="数据预览_交互" data-name="数据预览—交互"><rect class="cls-1" width="48" height="16"/><g class="cls-2"><path class="cls-3" d="M15.1,10.43H10.54l-1.2,3.81H7.74L12,1.78h1.75L18,14.24H16.29Zm-.39-1.26-.6-1.9c-.45-1.41-.85-2.77-1.25-4.22h-.07c-.39,1.47-.8,2.81-1.24,4.22l-.61,1.9Z"/><path class="cls-3" d="M20.13,1.78h3.71c2.53,0,4.28.85,4.28,3a2.71,2.71,0,0,1-1.83,2.7v.09a2.88,2.88,0,0,1,2.55,3c0,2.45-1.94,3.66-4.73,3.66h-4Zm3.44,5.3c2.14,0,3-.8,3-2,0-1.47-1-2-2.95-2H21.71V7.08Zm.32,5.9c2.14,0,3.4-.76,3.4-2.45,0-1.54-1.22-2.24-3.4-2.24H21.71V13Z"/><path class="cls-3" d="M31,8c0-4,2.37-6.48,5.53-6.48A4.59,4.59,0,0,1,40,3.09l-.85,1a3.37,3.37,0,0,0-2.55-1.19c-2.36,0-3.92,1.94-3.92,5.05s1.49,5.11,3.87,5.11a3.78,3.78,0,0,0,2.89-1.39l.87,1a4.83,4.83,0,0,1-3.83,1.79C33.34,14.46,31,12.06,31,8Z"/></g></g></g></svg>