<svg xmlns="http://www.w3.org/2000/svg" viewBox="0 0 48 16"><defs><style>.cls-1{fill:none;opacity:0.1;}.cls-2{opacity:0.8;}.cls-3{fill:#e8258b;}</style></defs><title>icn_布尔型</title><g id="图层_2" data-name="图层 2"><g id="数据预览_交互" data-name="数据预览—交互"><rect class="cls-1" width="48" height="16"/><g class="cls-2"><path class="cls-3" d="M4.46,1.78H7.8c2.28,0,3.85.85,3.85,3A2.71,2.71,0,0,1,10,7.52v.09a2.79,2.79,0,0,1,2.3,3c0,2.45-1.75,3.66-4.26,3.66H4.46Zm3.09,5.3c1.93,0,2.71-.8,2.71-2,0-1.47-.9-2-2.65-2H5.88V7.08ZM7.84,13c1.93,0,3.06-.77,3.06-2.45S9.8,8.29,7.84,8.29h-2V13Z"/><path class="cls-3" d="M13.87,8c0-4,2-6.42,4.79-6.42S23.45,4,23.45,8s-2,6.5-4.79,6.5S13.87,12,13.87,8ZM22,8c0-3.12-1.34-5-3.34-5s-3.34,1.92-3.34,5,1.32,5.12,3.34,5.12S22,11.08,22,8Z"/><path class="cls-3" d="M25.22,8c0-4,2-6.42,4.79-6.42S34.8,4,34.8,8s-2,6.5-4.79,6.5S25.22,12,25.22,8Zm8.13,0c0-3.12-1.33-5-3.34-5s-3.33,1.92-3.33,5S28,13.08,30,13.08,33.35,11.08,33.35,8Z"/><path class="cls-3" d="M37.22,1.78h1.42V12.89h4.9v1.35H37.22Z"/></g></g></g></svg>