<svg xmlns="http://www.w3.org/2000/svg" viewBox="0 0 48 16"><defs><style>.cls-1{fill:none;}.cls-2{opacity:0.8;}.cls-3{fill:#12af98;}</style></defs><title>icn_整型</title><g id="图层_2" data-name="图层 2"><g id="数据预览_交互" data-name="数据预览—交互"><rect class="cls-1" width="48" height="16"/><g class="cls-2"><path class="cls-3" d="M9.37,13h2.77V3.65H9.93v-1a7.83,7.83,0,0,0,2.59-.88h1.19V13h2.5v1.29H9.37Z"/><path class="cls-3" d="M19.76,13.32c3.91-3.42,5.71-5.9,5.71-8a2.19,2.19,0,0,0-2.29-2.46,3.48,3.48,0,0,0-2.59,1.44l-.9-.88a4.75,4.75,0,0,1,3.67-1.84A3.42,3.42,0,0,1,27,5.23c0,2.48-1.95,5-4.88,7.78.65,0,1.42-.11,2-.11h3.45v1.34H19.76Z"/><path class="cls-3" d="M30.64,12.76l.78-1a4.13,4.13,0,0,0,3.09,1.43,2.3,2.3,0,0,0,2.54-2.31c0-1.5-1-2.5-3.88-2.5V7.17c2.57,0,3.45-1,3.45-2.38a2,2,0,0,0-2.11-2A4,4,0,0,0,31.93,4L31.1,3a5,5,0,0,1,3.48-1.5c2.09,0,3.62,1.12,3.62,3.13a3.12,3.12,0,0,1-2.22,3v.07a3.19,3.19,0,0,1,2.65,3.16c0,2.22-1.79,3.55-4,3.55A5.16,5.16,0,0,1,30.64,12.76Z"/></g></g></g></svg>