<svg xmlns="http://www.w3.org/2000/svg" viewBox="0 0 48 16"><defs><style>.cls-1{fill:none;opacity:0.1;}.cls-2{opacity:0.8;}.cls-3{fill:#f49019;}</style></defs><title>icn_日期时间</title><g id="图层_2" data-name="图层 2"><g id="数据预览_交互" data-name="数据预览—交互"><rect class="cls-1" width="48" height="16"/><g class="cls-2"><path class="cls-3" d="M3.6,8c0-4.34,1.51-6.43,3.89-6.43S11.37,3.65,11.37,8s-1.51,6.49-3.88,6.49S3.6,12.3,3.6,8ZM9.86,8c0-3.64-1-5.17-2.37-5.17S5.11,4.33,5.11,8s1,5.25,2.38,5.25S9.86,11.64,9.86,8Z"/><path class="cls-3" d="M13,8c0-4.34,1.51-6.43,3.89-6.43S20.8,3.65,20.8,8s-1.51,6.49-3.87,6.49S13,12.3,13,8Zm6.25,0c0-3.64-.95-5.17-2.36-5.17S14.55,4.33,14.55,8s.95,5.25,2.38,5.25S19.29,11.64,19.29,8Z"/><path class="cls-3" d="M22.88,6.44a1.12,1.12,0,1,1,2.24,0,1.12,1.12,0,1,1-2.24,0Zm0,6.85a1.12,1.12,0,1,1,2.24,0,1.12,1.12,0,1,1-2.24,0Z"/><path class="cls-3" d="M27.2,8c0-4.34,1.51-6.43,3.89-6.43S35,3.65,35,8s-1.51,6.49-3.87,6.49S27.2,12.3,27.2,8Zm6.25,0c0-3.64-1-5.17-2.36-5.17S28.71,4.33,28.71,8s.95,5.25,2.38,5.25S33.45,11.64,33.45,8Z"/><path class="cls-3" d="M36.63,8c0-4.34,1.51-6.43,3.89-6.43S44.4,3.65,44.4,8s-1.51,6.49-3.88,6.49S36.63,12.3,36.63,8Zm6.26,0c0-3.64-1-5.17-2.37-5.17S38.14,4.33,38.14,8s1,5.25,2.38,5.25S42.89,11.64,42.89,8Z"/></g></g></g></svg>