<svg xmlns="http://www.w3.org/2000/svg" viewBox="0 0 48 16"><defs><style>.cls-1{fill:none;opacity:0.1;}.cls-2{opacity:0.8;}.cls-3{fill:#722ed1;}</style></defs><title>icn_浮点型</title><g id="图层_2" data-name="图层 2"><g id="数据预览_交互" data-name="数据预览—交互"><rect class="cls-1" width="48" height="16"/><g class="cls-2"><path class="cls-3" d="M10.38,5.19H13L13.63,2H15.2l-.66,3.18h2.93L18.13,2H19.7L19,5.19h1.39V6.76H18.72L18.2,9.27h2.23v1.57H17.87L17.22,14H15.64l.66-3.15H13.36L12.7,14H11.12l.66-3.15h-1.4V9.27h1.73l.53-2.51H10.38Zm3.83,1.57-.52,2.51h2.93l.52-2.51Z"/><path class="cls-3" d="M25.26,11.25V14H22.73V11.25Z"/><path class="cls-3" d="M27.57,5.19h2.58L30.82,2h1.57l-.66,3.18h2.93L35.32,2h1.57l-.66,3.18h1.39V6.76H35.9l-.52,2.51h2.24v1.57H35.06L34.41,14H32.83l.66-3.15H30.55L29.89,14H28.31L29,10.84h-1.4V9.27H29.3l.52-2.51H27.57ZM31.4,6.76l-.52,2.51h2.93l.52-2.51Z"/></g></g></g></svg>