<svg xmlns="http://www.w3.org/2000/svg" viewBox="0 0 48 16"><defs><style>.cls-1{fill:none;opacity:0.1;}.cls-2{opacity:0.8;}.cls-3{fill:#113ca5;}</style></defs><title>icn_枚举型</title><g id="图层_2" data-name="图层 2"><g id="数据预览_交互" data-name="数据预览—交互"><rect class="cls-1" width="48" height="16"/><g class="cls-2"><path class="cls-3" d="M4,8C4,5,5.86,3.16,7.83,3.16c2.16,0,3.38,1.69,3.38,4.33a6.75,6.75,0,0,1-.06.88H5.42c.1,2,1.21,3.23,2.82,3.23a3.47,3.47,0,0,0,2.13-.73l.51,1a4.74,4.74,0,0,1-2.81.95C5.82,12.84,4,11.06,4,8Zm6-.75C10,5.4,9.18,4.4,7.85,4.4s-2.27,1-2.44,2.87Z"/><path class="cls-3" d="M13.31,3.39h1.18l.12,1.33h.05A4,4,0,0,1,17.5,3.16c1.79,0,2.6,1.25,2.6,3.62v5.84H18.68V7c0-1.73-.49-2.46-1.61-2.46-.88,0-1.47.47-2.34,1.41v6.69H13.31Z"/><path class="cls-3" d="M22.87,3.39h1.18l.12,1.35h0a3.64,3.64,0,0,1,2.64-1.58,2.26,2.26,0,0,1,2.35,1.76A4,4,0,0,1,32,3.16c1.75,0,2.58,1.25,2.58,3.62v5.84H33.17V7c0-1.73-.5-2.46-1.58-2.46-.66,0-1.35.45-2.14,1.41v6.69H28V7c0-1.73-.5-2.46-1.58-2.46A3.06,3.06,0,0,0,24.3,5.93v6.69H22.87Z"/><path class="cls-3" d="M37.26,9.24V3.39h1.42V9.05c0,1.72.47,2.45,1.6,2.45.87,0,1.48-.46,2.3-1.56V3.39H44v9.23H42.81l-.11-1.44h-.05a3.56,3.56,0,0,1-2.81,1.66C38.05,12.84,37.26,11.59,37.26,9.24Z"/></g></g></g></svg>